<?xml version="1.0" encoding="UTF-8" standalone="no"?><svg xmlns="http://www.w3.org/2000/svg" xmlns:xlink="http://www.w3.org/1999/xlink" fill="#490274" height="462" version="1" viewBox="0 0 512 462" width="512"><g><path d="M2423 4224 c-22 -22 -24 -31 -19 -68 4 -23 8 -197 11 -386 4 -340 4 -345 25 -362 28 -23 67 -23 79 0 14 27 40 163 53 279 14 127 3 242 -41 416 -39 156 -55 174 -108 121z" transform="matrix(.1 0 0 -.1 0 462)"/><path d="M3499 3843 c-127 -123 -234 -295 -315 -505 -38 -97 -42 -126 -18 -135 37 -14 84 25 151 129 237 364 293 461 293 502 0 51 -9 86 -22 86 -6 0 -46 -35 -89 -77z" transform="matrix(.1 0 0 -.1 0 462)"/><path d="M1420 3868 c-32 -35 -25 -72 34 -167 29 -47 94 -153 142 -235 91 -153 115 -180 172 -191 29 -6 32 -4 32 16 0 38 -40 170 -75 246 -46 99 -98 175 -179 261 -88 93 -99 99 -126 70z" transform="matrix(.1 0 0 -.1 0 462)"/><path d="M2200 3340 c-46 -23 -149 -63 -228 -91 -223 -77 -343 -144 -467 -260 -63 -60 -170 -197 -161 -207 3 -2 35 22 72 53 74 63 171 128 251 169 74 37 83 32 26 -12 -169 -135 -290 -341 -345 -592 -19 -90 -23 -134 -23 -315 0 -189 2 -219 24 -300 31 -119 86 -245 147 -336 l49 -74 8 74 c5 41 15 90 22 108 13 31 13 38 -4 71 -32 63 -72 183 -87 262 -19 100 -18 335 1 437 53 280 209 519 460 706 143 107 259 144 480 154 315 15 607 -102 863 -342 210 -198 305 -419 305 -710 0 -259 -62 -466 -194 -648 l-50 -69 33 7 c18 4 67 18 109 32 l76 25 41 71 c98 171 145 349 145 547 -1 184 -38 340 -120 505 -225 449 -663 695 -1238 695 -69 0 -125 2 -125 5 0 3 7 21 14 40 8 19 12 35 7 35 -4 0 -45 -18 -91 -40z" transform="matrix(.1 0 0 -.1 0 462)"/><path d="M648 3140 c-43 -27 -22 -46 225 -203 133 -85 252 -159 264 -166 30 -15 79 -14 113 4 57 29 40 51 -121 163 -145 99 -251 163 -307 185 -55 22 -151 31 -174 17z" transform="matrix(.1 0 0 -.1 0 462)"/><path d="M4067 3052 c-159 -82 -369 -213 -397 -249 -25 -32 -25 -48 -1 -72 39 -39 85 -38 190 5 103 43 339 186 402 245 47 44 54 97 17 123 -38 27 -74 18 -211 -52z" transform="matrix(.1 0 0 -.1 0 462)"/><path d="M2420 3043 c-33 -12 -39 -33 -33 -121 6 -98 -6 -253 -51 -629 -17 -139 -8 -203 34 -248 l23 -25 214 0 c194 0 215 2 231 18 20 20 38 110 25 123 -5 5 -73 4 -153 -1 -197 -13 -237 -12 -243 3 -2 6 4 109 14 227 34 391 42 504 43 580 l1 75 -45 2 c-25 1 -52 -1 -60 -4z" transform="matrix(.1 0 0 -.1 0 462)"/><path d="M2082 2873 c-25 -10 -45 -68 -46 -129 0 -71 25 -124 67 -138 35 -13 58 9 87 79 21 52 21 56 6 102 -23 69 -42 93 -74 92 -15 0 -33 -3 -40 -6z" transform="matrix(.1 0 0 -.1 0 462)"/><path d="M2752 2852 c-43 -59 -40 -169 4 -222 47 -55 87 -36 122 58 19 50 20 56 5 100 -25 74 -41 92 -78 92 -25 0 -39 -7 -53 -28z" transform="matrix(.1 0 0 -.1 0 462)"/><path d="M450 2163 c-46 -6 -58 -18 -86 -78 -30 -63 -32 -177 -3 -160 4 3 48 14 97 25 69 15 162 22 403 31 346 12 352 13 330 68 -21 49 -104 81 -261 100 -97 11 -428 21 -480 14z" transform="matrix(.1 0 0 -.1 0 462)"/><path d="M4150 2138 c-140 -5 -270 -12 -289 -16 -107 -23 -26 -129 116 -152 205 -33 637 -44 656 -16 10 16 57 164 57 182 0 16 -109 17 -540 2z" transform="matrix(.1 0 0 -.1 0 462)"/><path d="M3103 2113 c-7 -3 -27 -32 -45 -66 -100 -187 -256 -267 -521 -267 -200 0 -332 44 -417 137 -29 32 -57 75 -67 104 -21 60 -49 82 -58 46 -9 -35 43 -143 92 -194 52 -52 109 -85 198 -115 63 -21 89 -23 245 -23 115 0 194 5 230 14 84 21 182 76 244 139 66 66 133 185 120 212 -5 9 -15 15 -21 13z" transform="matrix(.1 0 0 -.1 0 462)"/><path d="M1792 1546 c-40 -7 -76 -16 -81 -22 -5 -5 -10 -263 -12 -574 l-4 -565 109 -3 c71 -2 113 1 122 9 11 9 14 49 14 184 0 126 3 175 13 182 6 5 55 15 107 22 192 27 299 104 345 253 18 56 19 57 34 35 31 -44 58 -66 141 -115 174 -101 259 -158 270 -180 11 -25 14 -111 4 -136 -5 -13 -24 -16 -103 -16 -95 0 -98 1 -109 25 -7 14 -12 35 -12 46 0 11 -5 29 -10 40 -10 17 -22 19 -141 19 l-130 0 6 -47 c20 -150 40 -206 100 -272 96 -105 310 -131 500 -60 100 37 185 141 185 227 0 42 11 41 35 -4 29 -55 118 -130 183 -155 78 -30 276 -38 376 -15 156 37 290 145 365 296 33 66 41 77 37 50 -3 -19 -8 -117 -12 -218 l-7 -182 274 2 274 3 3 75 c2 41 0 108 -3 148 l-7 72 -127 0 c-170 0 -166 -3 -147 125 8 55 20 136 25 180 31 225 43 319 56 409 8 55 12 102 9 105 -3 3 -67 11 -142 18 -104 8 -140 8 -149 -1 -8 -7 -14 -62 -18 -156 -3 -80 -8 -165 -11 -190 l-6 -44 -19 54 c-86 244 -418 284 -779 94 -134 -70 -226 -195 -237 -323 -6 -61 -16 -77 -28 -42 -10 32 -80 88 -157 127 -112 56 -244 133 -264 155 -13 15 -16 31 -11 80 3 34 10 66 15 71 5 5 33 11 62 11 57 2 62 -2 90 -77 20 -53 48 -66 147 -66 73 0 83 2 97 22 31 45 13 144 -40 213 -32 43 -128 91 -209 106 -164 30 -351 -27 -397 -121 l-15 -32 -29 39 c-35 49 -84 85 -149 109 -63 23 -323 29 -433 10z m366 -258 c8 -8 12 -48 12 -114 0 -138 1 -137 -148 -132 -142 4 -142 4 -142 134 0 125 -1 124 149 124 78 0 121 -4 129 -12z m1600 -367 c1 -113 -2 -199 -7 -204 -10 -10 -245 -12 -261 -2 -11 7 -14 388 -3 399 4 3 66 5 137 4 l131 -3 3 -194z" transform="matrix(.1 0 0 -.1 0 462)"/><path d="M1215 1421 c-96 -33 -246 -100 -335 -149 -140 -77 -252 -146 -258 -160 -7 -21 65 -162 83 -162 15 0 645 370 678 398 40 35 3 102 -56 101 -18 0 -68 -13 -112 -28z" transform="matrix(.1 0 0 -.1 0 462)"/></g></svg>